<svg xmlns="http://www.w3.org/2000/svg" viewBox="0 0 47.84 82.33"><defs><style>.cls-1{fill:#bd1522;}</style></defs><g id="Calque_2" data-name="Calque 2"><g id="Calque_1-2" data-name="Calque 1"><path class="cls-1" d="M0,30.53C0,24.72,0,18.9,0,13.08A4,4,0,0,1,2.23,9.32,4.23,4.23,0,0,1,4,8.76a1,1,0,0,0,.3-.06,16.34,16.34,0,0,1,1.82-.38c.63-.15,1.27-.27,1.9-.4l1.78-.36,1.66-.33c.65-.11,1.29-.29,2-.38.51-.08,1-.2,1.53-.3.66-.13,1.31-.32,2-.41.47-.06.93-.2,1.4-.29.7-.13,1.41-.29,2.12-.41.45-.07.9-.2,1.35-.29.77-.14,1.54-.29,2.29-.47.55-.14,1.11-.17,1.65-.33s1-.18,1.44-.29c.66-.15,1.33-.24,2-.41s1.11-.22,1.66-.33l1.86-.39c.52-.11,1-.22,1.57-.31s1.26-.3,1.9-.38,1.18-.28,1.78-.35a9.88,9.88,0,0,0,1.53-.31c.54-.16,1.1-.22,1.65-.34S42.49,1,43.18.8C43.6.71,44,.64,44.46.57A12.71,12.71,0,0,1,46.2.24a2.17,2.17,0,0,0,.5-.13A2,2,0,0,1,47.43,0c.42,0,.5.14.32.5s-.37.76-.56,1.13c-.52,1.1-1,2.19-1.56,3.29-.78,1.66-1.6,3.3-2.49,4.9a41,41,0,0,1-2.59,4.06,15.48,15.48,0,0,1-1.9,2.3,9,9,0,0,1-3.25,2,16.91,16.91,0,0,1-3.3.65c-.43.06-.86.14-1.29.18-.73.06-1.44.32-2.18.33a8.45,8.45,0,0,0-.84.19c-.83.12-1.65.3-2.47.45-.61.1-1.22.23-1.83.34a7.2,7.2,0,0,0-2.36.64,2.93,2.93,0,0,0-1.59,2.38c0,.33-.12.66-.17,1-.11.91-.2,1.83-.34,2.75-.08.61-.19,1.22-.22,1.84,0,.16,0,.32,0,.48a1.37,1.37,0,0,0,1.61,1.47,4.49,4.49,0,0,0,1.19-.24,8.45,8.45,0,0,1,1.13-.27c.77-.18,1.54-.38,2.31-.57a9.26,9.26,0,0,0,1.55-.39,5.49,5.49,0,0,1,1-.22L29,28.86a9,9,0,0,0,1.42-.36,1.67,1.67,0,0,1,2.09.89,1.5,1.5,0,0,1,0,1c-.27.78-.63,1.52-1,2.27L30,36.19l-1.69,3.66Q27.12,42.31,26,44.77l-2.82,6.1c-.64,1.41-1.27,2.82-1.92,4.22s-1.35,2.94-2,4.41L17.16,64c-.59,1.28-1.2,2.56-1.79,3.85-.5,1.09-1,2.18-1.5,3.27l-2.77,6c-.48,1-.95,2.11-1.44,3.15a10.45,10.45,0,0,1-.74,1.13c-.15.22-.32.44-.49.66a1,1,0,0,1-.18.18c-.22.16-.38.09-.41-.19a3.69,3.69,0,0,1,0-.47C8,79.47,8,77.36,8,75.25c0-1.43,0-2.87.11-4.29.15-2.69.1-5.38.17-8.07,0-1.06,0-2.14.13-3.2a2.26,2.26,0,0,0,0-.26c.09-2.49.08-5,.11-7.46,0-.93.09-1.85.13-2.77a1.15,1.15,0,0,0,0-.26c0-.23-.1-.32-.33-.29a25.54,25.54,0,0,0-2.9.21,4.86,4.86,0,0,1-1.08.06c-1,0-2.07.22-3.11.23-.2,0-.4,0-.61,0-.5,0-.64-.09-.64-.6V30.53Z"/></g></g></svg>