<svg id="Calque_1" data-name="Calque 1" xmlns="http://www.w3.org/2000/svg" viewBox="0 0 75.01 48.06"><defs><style>.cls-1{fill:#be1823;}.cls-2{fill:#1e1e1c;}</style></defs><path class="cls-1" d="M37.81,19.48c0-3.39,0-6.79,0-10.18a2.56,2.56,0,0,1,2.33-2.52l.17,0a9.49,9.49,0,0,1,1.06-.22c.37-.09.74-.16,1.11-.23l1-.21c.33-.07.65-.14,1-.19s.75-.18,1.14-.23.59-.12.89-.17.77-.19,1.16-.24.54-.12.82-.17.82-.17,1.24-.24c.26,0,.52-.12.79-.17.44-.08.89-.17,1.33-.28s.65-.1,1-.19.56-.1.84-.17.78-.14,1.16-.24.64-.12,1-.19l1.08-.23c.31-.06.61-.13.92-.18S58.54,3,58.91,3s.69-.16,1-.2a5.42,5.42,0,0,0,.89-.19c.32-.09.64-.13,1-.2L63,2.13,63.76,2a9,9,0,0,1,1-.19.84.84,0,0,0,.3-.08,1.47,1.47,0,0,1,.42-.06c.25,0,.29.08.19.3s-.22.44-.32.66c-.31.64-.62,1.27-.92,1.91C64,5.51,63.51,6.46,63,7.4a26.26,26.26,0,0,1-1.51,2.36,9.06,9.06,0,0,1-1.11,1.35,5.18,5.18,0,0,1-1.9,1.17,9.16,9.16,0,0,1-1.93.38c-.25,0-.5.09-.75.11-.43,0-.84.19-1.27.2a2.88,2.88,0,0,0-.49.11c-.48.07-1,.17-1.44.25l-1.07.21a4.16,4.16,0,0,0-1.38.37,1.72,1.72,0,0,0-.93,1.39c0,.19-.07.38-.09.57-.07.54-.12,1.08-.2,1.61-.05.36-.11.71-.13,1.08l0,.27a.8.8,0,0,0,.94.86,2.42,2.42,0,0,0,.7-.14c.21-.08.44-.1.66-.16l1.35-.32a7,7,0,0,0,.9-.23,3.63,3.63,0,0,1,.59-.13l.81-.2a5.93,5.93,0,0,0,.83-.21,1,1,0,0,1,1.22.52.8.8,0,0,1,0,.59,12.9,12.9,0,0,1-.56,1.33l-.93,2.05-1,2.13L53,27.8c-.55,1.18-1.09,2.37-1.64,3.56-.38.82-.75,1.64-1.12,2.46s-.79,1.72-1.19,2.57-.8,1.77-1.21,2.65-.69,1.49-1,2.24l-.87,1.91c-.54,1.17-1.09,2.33-1.62,3.49-.28.61-.56,1.23-.85,1.84a5.67,5.67,0,0,1-.42.66c-.09.13-.19.25-.29.38a.57.57,0,0,1-.11.11c-.12.09-.22,0-.23-.11a2.62,2.62,0,0,1,0-.28c.11-1.23.11-2.46.1-3.69,0-.84,0-1.68.07-2.51.08-1.57.05-3.14.1-4.71a16.79,16.79,0,0,1,.07-1.87.76.76,0,0,0,0-.15c.05-1.45.05-2.9.06-4.35,0-.54.05-1.08.08-1.62a.75.75,0,0,0,0-.15c0-.14-.06-.18-.19-.17a16,16,0,0,0-1.69.12,2.64,2.64,0,0,1-.63,0c-.61,0-1.21.13-1.82.13-.12,0-.23,0-.35,0-.3,0-.38-.06-.38-.36V19.48Z" transform="translate(-37.81 -1.66)"/><path class="cls-2" d="M55.89,29.18a9.9,9.9,0,0,1,1.75.09c.24,0,.49,0,.73.05a6.26,6.26,0,0,1,2.23.79A3.34,3.34,0,0,1,62,31.75a3.75,3.75,0,0,1,.28,1.48,6.3,6.3,0,0,1,0,1.23c-.08.34-.13.68-.22,1a9,9,0,0,1-.44,1.33,6,6,0,0,1-1.46,2.08,2.5,2.5,0,0,0-.24.22c-.13.13-.13.16,0,.3l.9,1c.19.21.19.29,0,.48-.6.53-1.19,1-1.77,1.6l-.1.08c-.17.12-.22.12-.36,0l-1.06-1.19-.55-.62a.35.35,0,0,0-.37-.11,12.21,12.21,0,0,1-2.25.25c-.37,0-.73,0-1.09,0a9.39,9.39,0,0,1-1.59-.13h-.15a5.19,5.19,0,0,1-1.65-.36,4.45,4.45,0,0,1-1.22-.64c-.19-.13-.22-.18-.14-.4.13-.38.33-.72.49-1.08.25-.56.5-1.11.76-1.66l1.08-2.34c.3-.65.59-1.31.89-2s.57-1.24.86-1.86a7.65,7.65,0,0,0,.32-.71.62.62,0,0,1,.52-.39h.1A19,19,0,0,1,55.89,29.18Zm1.64,4.88a2.43,2.43,0,0,0-.09-.88,1.66,1.66,0,0,0-.53-.72,2.71,2.71,0,0,0-1.35-.39,3.72,3.72,0,0,0-1.51.22,2.65,2.65,0,0,0-1.49,1.22,5,5,0,0,0-.6,1.76,3.47,3.47,0,0,0,0,1.4,1.64,1.64,0,0,0,1.26,1.21,2.61,2.61,0,0,1,.27.06,2.68,2.68,0,0,0,.8.05.12.12,0,0,0,.11-.05s0-.08,0-.11l-.27-.28a.15.15,0,0,1,0-.22.67.67,0,0,1,.14-.15l1.13-1c.21-.18.42-.37.63-.54s.29-.16.48,0,.26.3.39.46.19.15.28,0a.11.11,0,0,0,0-.07A4.83,4.83,0,0,0,57.53,34.06Z" transform="translate(-37.81 -1.66)"/><path class="cls-2" d="M64.14,28.32H62.39c-.19,0-.24-.07-.25-.25v-.18c0-.2,0-.22-.2-.12a5,5,0,0,1-.56.3,6.2,6.2,0,0,1-1.22.39,12.65,12.65,0,0,1-2.46.22,2.78,2.78,0,0,1-.58-.05c-.19,0-.39,0-.58-.05A3.4,3.4,0,0,1,55,28a1.74,1.74,0,0,1-.65-1.22.57.57,0,0,1,0-.29,9.31,9.31,0,0,1,.46-1.07c.16-.35.33-.68.48-1a1.38,1.38,0,0,1,.81-.69,4.26,4.26,0,0,1,.78-.28c.33-.06.66-.14,1-.19.92-.13,1.84-.07,2.75-.16.56-.05,1.11-.08,1.67-.11a.73.73,0,0,0,.7-.41.48.48,0,0,0-.29-.71,2.4,2.4,0,0,0-.8-.14c-.23,0-.47,0-.71,0A2.28,2.28,0,0,0,60.1,22a1,1,0,0,0-.46.43.4.4,0,0,1-.41.22c-.8,0-1.59,0-2.39,0h-.45c-.2,0-.26-.07-.18-.25.23-.5.45-1,.69-1.49a1.19,1.19,0,0,1,.61-.54,6.07,6.07,0,0,1,1.24-.43,12.27,12.27,0,0,1,2-.24q1,0,1.92,0a6.73,6.73,0,0,1,1.19.06,7.35,7.35,0,0,1,1.14.2,6.74,6.74,0,0,1,.86.3,1.86,1.86,0,0,1,1,1.06A2.47,2.47,0,0,1,67,22.55c-.08.4-.13.81-.23,1.21s-.11.6-.19.89-.13.66-.21,1-.13.65-.2,1a2.34,2.34,0,0,0-.08,1.31.22.22,0,0,1,0,.08c0,.25,0,.32-.27.33Zm-4.4-1.78.23,0c.27,0,.53-.1.8-.12A2.38,2.38,0,0,0,61.83,26a1.85,1.85,0,0,0,.8-1.26c0-.13,0-.17-.15-.13-.44.12-.91.08-1.35.19a2.09,2.09,0,0,1-.25,0l-.41,0c-.34,0-.66.11-1,.12a1.14,1.14,0,0,0-.59.21.84.84,0,0,0-.23,1,.43.43,0,0,0,.25.21A3.39,3.39,0,0,0,59.74,26.54Z" transform="translate(-37.81 -1.66)"/><path class="cls-2" d="M82.87,37.28H79.12c-.29,0-.39.14-.28.42a1,1,0,0,0,.35.46,2,2,0,0,0,1.16.39H81A2.25,2.25,0,0,0,82.52,38a.73.73,0,0,1,.54-.18h3.32a.77.77,0,0,1,.3,0c.09,0,.14.1.07.2a5.18,5.18,0,0,1-.89,1.09,6.11,6.11,0,0,1-2.33,1.24c-.29.08-.58.14-.88.2a14,14,0,0,1-2.67.22,3,3,0,0,1-.42,0,3.42,3.42,0,0,0-.71-.07,1.54,1.54,0,0,1-.57-.08.63.63,0,0,0-.22,0,2.29,2.29,0,0,1-.74-.18,4.12,4.12,0,0,1-1.51-.85,2.94,2.94,0,0,1-.72-1,6.6,6.6,0,0,1-.21-1,1.55,1.55,0,0,1,0-.43c0-.26.06-.52.12-.78a6.56,6.56,0,0,1,.23-.84,5.33,5.33,0,0,1,.41-.87,4.94,4.94,0,0,1,1.3-1.47,6,6,0,0,1,1.95-1c.4-.12.81-.21,1.22-.29A12.5,12.5,0,0,1,83,31.8a6.48,6.48,0,0,1,1.58.29,3.86,3.86,0,0,1,1.74,1,3,3,0,0,1,.74,1.38,4.82,4.82,0,0,1,.14,1.26c0,.43-.12.85-.17,1.27,0,.19-.13.26-.31.28H82.87ZM81.36,35.2h2a.12.12,0,0,0,.11-.14,1.07,1.07,0,0,0-.44-.8,1.81,1.81,0,0,0-1-.31c-.19,0-.37,0-.56,0a2.93,2.93,0,0,0-1.05.14,1.79,1.79,0,0,0-1.07.85c-.13.23-.11.27.15.27Z" transform="translate(-37.81 -1.66)"/><path class="cls-2" d="M108.42,37.28H104.7c-.34,0-.4.09-.28.42a1.3,1.3,0,0,0,.81.71,3.28,3.28,0,0,0,1.67.12,1.92,1.92,0,0,0,1.23-.54.61.61,0,0,1,.47-.14h3.6c.13,0,.16.09.1.22a2.52,2.52,0,0,1-.46.66,5.29,5.29,0,0,1-2,1.41,6,6,0,0,1-1.29.4,5.41,5.41,0,0,1-1.33.19,1.81,1.81,0,0,0-.4,0,7,7,0,0,1-2,0c-.13,0-.27,0-.41,0a1.42,1.42,0,0,1-.35,0,8,8,0,0,1-1.51-.39,3.25,3.25,0,0,1-1.83-1.62,3,3,0,0,1-.26-1.73c.06-.32.08-.65.17-1a5.46,5.46,0,0,1,.74-1.65,5.34,5.34,0,0,1,2.36-1.89,6.83,6.83,0,0,1,1.53-.49,8,8,0,0,1,1.63-.2,14.86,14.86,0,0,1,1.89.06,6.45,6.45,0,0,1,2,.5,3,3,0,0,1,1.76,1.8,4.2,4.2,0,0,1,.23,2.11,4.33,4.33,0,0,0-.12.72c0,.22-.16.33-.4.33h-3.83Zm-1.49-2.08h2a.13.13,0,0,0,.13-.16,1,1,0,0,0-.2-.56,1.36,1.36,0,0,0-1-.52,4.72,4.72,0,0,0-1.87.13,1.94,1.94,0,0,0-1.11,1c0,.09,0,.13.07.14h2Z" transform="translate(-37.81 -1.66)"/><path class="cls-2" d="M69.7,25.58h1.87c.32,0,.34,0,.41.33a.6.6,0,0,0,.61.47,6.76,6.76,0,0,0,1.19,0,.78.78,0,0,0,.72-.48.27.27,0,0,0-.13-.38,1.11,1.11,0,0,0-.54-.13c-.74-.05-1.47-.13-2.2-.24-.28,0-.56,0-.84-.07s-.83-.1-1.24-.24A1.84,1.84,0,0,1,68.4,24a1.61,1.61,0,0,1-.19-.68,3.23,3.23,0,0,1,.63-2.06A3.12,3.12,0,0,1,70,20.34a6.16,6.16,0,0,1,1.33-.46c.39-.11.79-.09,1.17-.21a.5.5,0,0,1,.12,0c.81,0,1.62-.07,2.43,0a6.65,6.65,0,0,1,1.09.07,9.93,9.93,0,0,1,1,.19,5.41,5.41,0,0,1,1.12.43,1.93,1.93,0,0,1,1.06,1.95c0,.22-.1.31-.33.33h-3.8a.25.25,0,0,1-.27-.22c0-.28-.22-.37-.47-.44a3.45,3.45,0,0,0-1.63,0,.49.49,0,0,0-.39.33.26.26,0,0,0,.17.36,2.85,2.85,0,0,0,.77.16,8.9,8.9,0,0,1,1.46.13l.17,0a7.38,7.38,0,0,1,1.49.13,1.83,1.83,0,0,0,.33,0,3.15,3.15,0,0,1,1.44.41,1.61,1.61,0,0,1,.78,1,2.36,2.36,0,0,1,0,1,3.08,3.08,0,0,1-.93,1.83A4,4,0,0,1,77,28a6.18,6.18,0,0,1-1.18.36,6.44,6.44,0,0,1-1.07.17c-.86,0-1.72.16-2.58.12-.23,0-.45,0-.68-.06s-.66,0-1-.06a9.67,9.67,0,0,1-1.17-.23,4,4,0,0,1-1-.43,1.81,1.81,0,0,1-.72-.85,2.11,2.11,0,0,1-.16-1.11c0-.28.09-.36.38-.36Z" transform="translate(-37.81 -1.66)"/><path class="cls-2" d="M91.41,32.07H93c.3,0,.39.11.31.39-.16.53-.23,1.07-.35,1.6s-.21,1-.32,1.53a9.57,9.57,0,0,1-.23,1.09,1,1,0,0,0,.41,1.13,1.25,1.25,0,0,0,.56.11,2.31,2.31,0,0,0,1-.14,1.84,1.84,0,0,0,1-1,4.32,4.32,0,0,0,.25-.77c.07-.31.11-.63.19-.94s.13-.68.21-1a6.25,6.25,0,0,0,.18-.86c0-.28.13-.54.17-.82s.14-.34.41-.34h3.22c.26,0,.33.09.28.35-.09.43-.16.86-.27,1.28s-.22,1.07-.34,1.61l-.21,1c-.05.31-.11.63-.18.94a7.1,7.1,0,0,0-.21,1,.87.87,0,0,1,0,.22,8.1,8.1,0,0,0-.2,1,6,6,0,0,0-.17.82.22.22,0,0,1-.21.19.82.82,0,0,1-.22,0H95c-.24,0-.3-.1-.23-.33,0-.08,0-.16.07-.24s0-.11,0-.14-.08,0-.12,0a3.83,3.83,0,0,1-.73.44,9.12,9.12,0,0,1-1,.35,8.74,8.74,0,0,1-1.12.19,2.76,2.76,0,0,1-1.18,0l-.15,0A2.61,2.61,0,0,1,89,40.17a2,2,0,0,1-.68-1,3,3,0,0,1,0-1.69c.06-.29.11-.58.18-.86s.16-.78.23-1.17a5.64,5.64,0,0,0,.2-1,4.31,4.31,0,0,1,.11-.49c.06-.37.15-.73.24-1.09a3.06,3.06,0,0,0,0-.32c0-.39.13-.49.52-.49Z" transform="translate(-37.81 -1.66)"/><path class="cls-2" d="M71.06,40.48H69.41c-.19,0-.25-.09-.21-.28s.06-.18.08-.27,0-.1,0-.14-.08,0-.11,0a4.26,4.26,0,0,1-1.47.71,3,3,0,0,1-1,.21,4.53,4.53,0,0,0-.5.06,2.49,2.49,0,0,1-1,0,.85.85,0,0,0-.22,0,2.67,2.67,0,0,1-1.49-.56,2,2,0,0,1-.68-1,3,3,0,0,1,0-1.72c.07-.32.14-.65.2-1s.15-.65.2-1,.17-.63.2-1a.88.88,0,0,1,0-.17c.17-.64.28-1.29.41-1.93a.79.79,0,0,1,.06-.22.28.28,0,0,1,.26-.2h3.22c.38,0,.45.11.37.48s-.18.77-.25,1.16-.13.55-.17.84-.16.72-.23,1.08l-.21,1a1.36,1.36,0,0,0,.06.89.71.71,0,0,0,.55.4,2.49,2.49,0,0,0,1,0,1.77,1.77,0,0,0,1.26-1A3.7,3.7,0,0,0,70,35.75c0-.28.12-.56.17-.84s.15-.74.24-1.11.12-.63.2-.94a2.7,2.7,0,0,0,.08-.39c0-.34.11-.4.45-.4h3.27c.18,0,.28.13.21.3a6.56,6.56,0,0,0-.19.88c-.07.3-.12.61-.19.92s-.13.74-.25,1.11a4.5,4.5,0,0,0-.11.64,6.3,6.3,0,0,0-.2,1,.41.41,0,0,1,0,.11,14.23,14.23,0,0,0-.35,1.6,7.42,7.42,0,0,0-.2,1c0,.25-.14.49-.16.74a.19.19,0,0,1-.19.17l-.25,0Z" transform="translate(-37.81 -1.66)"/><path class="cls-2" d="M86.82,22.45h-.73c-.3,0-.37.07-.38.35a2.75,2.75,0,0,1-.12.57c-.09.39-.16.77-.24,1.16a6.27,6.27,0,0,0-.19,1c0,.36.08.48.44.49h1.11c.42,0,.48.06.37.46s-.12.7-.23,1,0,.41-.13.61a.36.36,0,0,1-.26.25,3,3,0,0,1-.6.08c-.5,0-1,0-1.49.09a8.82,8.82,0,0,1-1.54-.06,3.1,3.1,0,0,1-.74-.13,1.48,1.48,0,0,1-.94-.95,2.41,2.41,0,0,1,0-1.25c.07-.38.13-.76.22-1.14s.1-.63.21-.93a.86.86,0,0,0,0-.28.65.65,0,0,1,.06-.3c.11-.25.08-.54.18-.81s0-.21-.19-.21H80.51c-.24,0-.28,0-.28-.27a1,1,0,0,1,0-.3c.18-.57.22-1.17.39-1.75,0-.17.1-.22.31-.22s.73,0,1.09,0h.2c.13,0,.18-.07.22-.2.09-.35.15-.71.22-1.06a8.24,8.24,0,0,0,.19-1c0-.3.13-.38.43-.38,1.06,0,2.13,0,3.19,0h.18a.17.17,0,0,1,.14.18.38.38,0,0,1,0,.15c-.16.52-.21,1.07-.36,1.6,0,.18,0,.37-.09.55s0,.13.1.13h1.65c.14,0,.19.09.16.23-.08.45-.17.89-.27,1.34a1.86,1.86,0,0,0-.07.34,1.84,1.84,0,0,1-.05.25c-.12.38-.13.38-.53.37Z" transform="translate(-37.81 -1.66)"/></svg>