<svg xmlns="http://www.w3.org/2000/svg" viewBox="0 0 31.2 19.99"><defs><style>.cls-1{fill:#be1823;}.cls-2{fill:#1e1e1c;}</style></defs><g id="Calque_2" data-name="Calque 2"><g id="Calque_1-2" data-name="Calque 1"><path class="cls-1" d="M0,7.41V3.18a1,1,0,0,1,.54-.92A1.08,1.08,0,0,1,1,2.13l.07,0A3.43,3.43,0,0,1,1.48,2L2,1.92l.43-.08.4-.08.47-.1.37-.07c.17,0,.32-.08.49-.1s.22-.05.34-.07L5,1.32l.33-.07.56-.11c.13,0,.27,0,.4-.08A2,2,0,0,1,6.6,1l.48-.1a2.83,2.83,0,0,1,.4-.08l.45-.1L8.32.64c.15,0,.3-.08.46-.1L9.21.46A1.63,1.63,0,0,0,9.58.38c.13,0,.27,0,.4-.08l.5-.1.31-.06a2,2,0,0,1,.43-.08l.12,0a.51.51,0,0,1,.17,0c.11,0,.13,0,.08.12S11.5.3,11.46.4c-.13.26-.26.53-.38.79-.19.41-.39.81-.61,1.2s-.4.66-.62,1a4.15,4.15,0,0,1-.46.56,2.23,2.23,0,0,1-.79.49,4.64,4.64,0,0,1-.81.16l-.31,0A4.85,4.85,0,0,1,7,4.7a1.46,1.46,0,0,0-.2,0l-.6.1-.45.09a1.66,1.66,0,0,0-.57.15.73.73,0,0,0-.39.58,2,2,0,0,1,0,.24c0,.22,0,.45-.08.67s0,.3,0,.45a.41.41,0,0,0,0,.11c0,.28.2.37.39.36a1,1,0,0,0,.29-.06,2.14,2.14,0,0,1,.27-.06l.56-.14a2.36,2.36,0,0,0,.38-.1,1.69,1.69,0,0,1,.24,0L7,7a2,2,0,0,0,.35-.09.4.4,0,0,1,.5.22.33.33,0,0,1,0,.24,5.31,5.31,0,0,1-.23.55l-.39.86c-.14.29-.27.59-.41.89s-.36.79-.55,1.19-.45,1-.68,1.48c-.16.34-.31.68-.47,1s-.33.71-.49,1.07-.34.73-.5,1.1l-.44.93-.36.79c-.23.49-.45,1-.67,1.46-.12.25-.23.51-.36.76a1.53,1.53,0,0,1-.17.27l-.12.16s0,0,0,0-.09,0-.1,0v-.11a13.2,13.2,0,0,0,0-1.54c0-.35,0-.7,0-1,0-.65,0-1.31,0-2a6.79,6.79,0,0,1,0-.78v-.06c0-.6,0-1.21,0-1.81,0-.23,0-.45,0-.67v-.07c0-.05,0-.07-.08-.07-.24,0-.47,0-.71,0a1.1,1.1,0,0,1-.26,0c-.25,0-.5,0-.75,0H.16C0,12,0,11.92,0,11.8V7.41Z"/><path class="cls-2" d="M7.52,11.45a3.48,3.48,0,0,1,.73,0l.3,0a2.7,2.7,0,0,1,.93.32,1.46,1.46,0,0,1,.57.68,1.67,1.67,0,0,1,.12.62,2.91,2.91,0,0,1,0,.51c0,.14-.05.29-.09.42a3.65,3.65,0,0,1-.18.56,2.41,2.41,0,0,1-.61.87l-.1.09c-.05.05-.05.06,0,.12l.37.41c.08.09.08.12,0,.2L8.79,17l0,0c-.07,0-.09,0-.15,0l-.44-.5c-.08-.09-.16-.17-.23-.26a.13.13,0,0,0-.15,0,6,6,0,0,1-.94.1,3.38,3.38,0,0,1-.45,0,5,5,0,0,1-.67,0H5.66A2,2,0,0,1,5,16.1a1.64,1.64,0,0,1-.51-.26c-.08-.06-.09-.08-.06-.17s.14-.3.2-.45l.32-.69.45-1,.37-.82L6.11,12c0-.1.09-.19.13-.29a.26.26,0,0,1,.22-.17h0A5.94,5.94,0,0,1,7.52,11.45Zm.69,2a1.18,1.18,0,0,0-.05-.37.59.59,0,0,0-.22-.3,1,1,0,0,0-.55-.16,1.49,1.49,0,0,0-.63.09,1.05,1.05,0,0,0-.62.51,1.87,1.87,0,0,0-.25.73,1.61,1.61,0,0,0,0,.58.7.7,0,0,0,.53.51l.11,0a1.22,1.22,0,0,0,.33,0s0,0,.05,0,0,0,0-.05a1.14,1.14,0,0,1-.11-.11.08.08,0,0,1,0-.1l.06-.06.47-.42.26-.22c.09-.07.12-.07.2,0l.16.2c.06.06.08.06.12,0v0A2,2,0,0,0,8.21,13.48Z"/><path class="cls-2" d="M11,11.09h-.72c-.08,0-.1,0-.11-.11v-.07c0-.09,0-.1-.08-.05L9.81,11a2.5,2.5,0,0,1-.51.16,5.89,5.89,0,0,1-1,.1l-.24,0-.24,0a1.3,1.3,0,0,1-.66-.25.73.73,0,0,1-.27-.5.27.27,0,0,1,0-.13,4.17,4.17,0,0,1,.19-.44c.06-.15.14-.29.2-.43a.59.59,0,0,1,.33-.29A2.13,2.13,0,0,1,7.93,9L8.34,9c.38-.06.77,0,1.15-.07l.69,0a.32.32,0,0,0,.29-.18.19.19,0,0,0-.12-.29A1.28,1.28,0,0,0,10,8.32h-.3a.79.79,0,0,0-.45.11.41.41,0,0,0-.19.18.17.17,0,0,1-.17.09H7.73c-.09,0-.11,0-.07-.11s.18-.41.28-.62a.47.47,0,0,1,.26-.22,2.21,2.21,0,0,1,.51-.18,4.7,4.7,0,0,1,.83-.1l.8,0a4.07,4.07,0,0,1,.5,0,2.43,2.43,0,0,1,.47.08,2.6,2.6,0,0,1,.36.13.79.79,0,0,1,.42.44,1,1,0,0,1,0,.55c0,.17-.05.34-.09.5s0,.25-.08.37-.06.28-.09.41,0,.27-.08.4a.94.94,0,0,0,0,.55v0c0,.11,0,.14-.11.14Zm-1.83-.74h.1l.33-.05a1,1,0,0,0,.44-.16.8.8,0,0,0,.34-.52c0-.06,0-.07-.07-.06s-.37,0-.56.08H9.43c-.14,0-.28,0-.42,0a.5.5,0,0,0-.24.09.34.34,0,0,0-.1.41.22.22,0,0,0,.1.09A1.45,1.45,0,0,0,9.12,10.35Z"/><path class="cls-2" d="M18.74,14.82H17.19c-.13,0-.17,0-.12.17a.45.45,0,0,0,.14.19.86.86,0,0,0,.48.16H18a.9.9,0,0,0,.64-.22.36.36,0,0,1,.22-.07H20.2a.27.27,0,0,1,.13,0s.06,0,0,.08a2.27,2.27,0,0,1-.37.45,2.61,2.61,0,0,1-1,.52l-.37.08a5.87,5.87,0,0,1-1.11.09h-.17a1.53,1.53,0,0,0-.3,0,1,1,0,0,1-.24,0l-.09,0a.78.78,0,0,1-.3-.07,1.51,1.51,0,0,1-.63-.35,1.19,1.19,0,0,1-.3-.44,2.88,2.88,0,0,1-.09-.4.54.54,0,0,1,0-.18,3.11,3.11,0,0,1,0-.32,3.57,3.57,0,0,1,.1-.35,2.15,2.15,0,0,1,.71-1,2.61,2.61,0,0,1,.81-.42l.51-.12a5.53,5.53,0,0,1,1.22,0,2.48,2.48,0,0,1,.66.12,1.58,1.58,0,0,1,.72.41,1.31,1.31,0,0,1,.31.58,2.24,2.24,0,0,1,.06.52c0,.18,0,.35-.07.53a.12.12,0,0,1-.13.11H18.74ZM18.12,14H19a.06.06,0,0,0,.05-.06.44.44,0,0,0-.19-.33.67.67,0,0,0-.41-.13h-.23a1.32,1.32,0,0,0-.44.05.77.77,0,0,0-.45.36c-.05.09,0,.11.07.11Z"/><path class="cls-2" d="M29.37,14.82H27.82c-.14,0-.16,0-.11.17a.53.53,0,0,0,.33.29,1.29,1.29,0,0,0,.7.05.76.76,0,0,0,.51-.22.28.28,0,0,1,.2-.06h1.49c.06,0,.07,0,0,.09a1.05,1.05,0,0,1-.2.27A2.11,2.11,0,0,1,30,16a2.81,2.81,0,0,1-.54.17,2.51,2.51,0,0,1-.55.07l-.17,0a2.89,2.89,0,0,1-.83,0h-.31a4.15,4.15,0,0,1-.63-.16,1.34,1.34,0,0,1-.76-.68,1.19,1.19,0,0,1-.11-.72,2.79,2.79,0,0,1,.07-.4,2.13,2.13,0,0,1,1.29-1.47,2.91,2.91,0,0,1,.63-.21,3.94,3.94,0,0,1,.68-.08,6.89,6.89,0,0,1,.79,0,3.4,3.4,0,0,1,.46.09c.12,0,.24.07.36.12a1.25,1.25,0,0,1,.74.75,1.75,1.75,0,0,1,.09.88,2.68,2.68,0,0,0-.05.3c0,.09-.07.13-.17.14H29.37ZM28.75,14h.83s.06,0,.06-.06a.49.49,0,0,0-.08-.24.6.6,0,0,0-.42-.22,1.88,1.88,0,0,0-.78.06.83.83,0,0,0-.46.4s0,.06,0,.06h.82Z"/><path class="cls-2" d="M13.27,10h.78c.13,0,.14,0,.17.14a.24.24,0,0,0,.25.19,2.67,2.67,0,0,0,.49,0,.33.33,0,0,0,.3-.2.11.11,0,0,0,0-.16A.44.44,0,0,0,15,9.87a9.24,9.24,0,0,1-.92-.1c-.12,0-.24,0-.35,0a4.18,4.18,0,0,1-.51-.1.78.78,0,0,1-.49-.36A.68.68,0,0,1,12.65,9a1.31,1.31,0,0,1,.26-.86,1.18,1.18,0,0,1,.46-.37,2.84,2.84,0,0,1,.56-.19c.16,0,.32,0,.48-.09h.05c.34,0,.68,0,1,0a3.4,3.4,0,0,1,.45,0c.14,0,.29,0,.43.08a2.68,2.68,0,0,1,.47.18.81.81,0,0,1,.44.81.14.14,0,0,1-.14.14.27.27,0,0,1-.09,0H15.55a.1.1,0,0,1-.11-.09c0-.12-.09-.16-.2-.18a1.31,1.31,0,0,0-.68,0,.19.19,0,0,0-.16.13.11.11,0,0,0,.07.15,1.23,1.23,0,0,0,.32.07,4.07,4.07,0,0,1,.61.05h.07a3.18,3.18,0,0,1,.62.05h.14a1.43,1.43,0,0,1,.6.17.71.71,0,0,1,.32.42,1.13,1.13,0,0,1,0,.41,1.33,1.33,0,0,1-.39.76,1.84,1.84,0,0,1-.48.3,3.06,3.06,0,0,1-.49.15,3.5,3.5,0,0,1-.45.07c-.36,0-.71.06-1.07.05l-.29,0c-.13,0-.27,0-.41,0a2.73,2.73,0,0,1-.48-.1,1.82,1.82,0,0,1-.44-.17.87.87,0,0,1-.3-.36.91.91,0,0,1-.07-.46c0-.12,0-.15.16-.15Z"/><path class="cls-2" d="M22.3,12.65H23c.12,0,.16,0,.13.16s-.1.45-.15.67-.09.42-.13.63a3.78,3.78,0,0,1-.1.46.42.42,0,0,0,.17.46.52.52,0,0,0,.24.05.93.93,0,0,0,.4-.06.78.78,0,0,0,.4-.4,1.7,1.7,0,0,0,.1-.32c0-.13,0-.26.08-.39s.05-.28.09-.42.05-.24.07-.36.06-.23.07-.34.06-.14.17-.14h1.34c.11,0,.14,0,.12.14s-.07.36-.11.54-.1.44-.14.66-.07.28-.09.41-.05.27-.08.39-.07.28-.09.43a.29.29,0,0,1,0,.09,2.7,2.7,0,0,0-.08.41,1.86,1.86,0,0,0-.07.34s0,.07-.09.08H23.79c-.1,0-.12,0-.09-.13l0-.1s0-.05,0-.06,0,0,0,0a1.57,1.57,0,0,1-.31.18,2.86,2.86,0,0,1-.41.15,3.54,3.54,0,0,1-.47.07,1,1,0,0,1-.49,0h-.06a1.07,1.07,0,0,1-.62-.23.89.89,0,0,1-.28-.41,1.28,1.28,0,0,1,0-.7c0-.12,0-.24.07-.36s.07-.33.1-.49a2,2,0,0,0,.08-.42,1.46,1.46,0,0,1,.05-.2,3.63,3.63,0,0,1,.1-.45.68.68,0,0,0,0-.14c0-.16,0-.2.21-.2Z"/><path class="cls-2" d="M13.83,16.15h-.69c-.07,0-.1,0-.08-.12l0-.11s0,0,0-.05a0,0,0,0,0-.05,0,1.93,1.93,0,0,1-.61.3,1.19,1.19,0,0,1-.41.08,1.52,1.52,0,0,0-.21,0,1.13,1.13,0,0,1-.41,0l-.09,0a1,1,0,0,1-.62-.23.83.83,0,0,1-.29-.4,1.23,1.23,0,0,1,0-.71c0-.14.06-.28.08-.41l.09-.4c0-.14.07-.27.08-.4a.22.22,0,0,1,0-.08c.07-.26.11-.53.17-.8a.29.29,0,0,1,0-.09.12.12,0,0,1,.11-.08h1.34c.16,0,.19,0,.15.2s-.07.32-.1.48-.05.23-.07.35-.07.3-.1.45-.05.27-.08.4a.53.53,0,0,0,0,.37.31.31,0,0,0,.23.17,1.13,1.13,0,0,0,.41,0,.69.69,0,0,0,.52-.43,1.37,1.37,0,0,0,.13-.45c0-.12,0-.23.08-.35l.09-.46.09-.39a1,1,0,0,0,0-.17c0-.14.05-.16.19-.16h1.36c.07,0,.11,0,.09.12a2.45,2.45,0,0,0-.08.37c0,.13-.05.25-.08.38s-.05.31-.1.46a2.56,2.56,0,0,0-.05.27,1.77,1.77,0,0,0-.08.4.06.06,0,0,0,0,0c-.07.22-.1.45-.15.67s-.06.26-.08.4,0,.2-.06.31a.1.1,0,0,1-.08.07h-.72Z"/><path class="cls-2" d="M20.39,8.65h-.31c-.12,0-.15,0-.15.14a1.68,1.68,0,0,1-.06.24l-.09.48a2.88,2.88,0,0,0-.09.4c0,.15,0,.2.19.2h.46c.17,0,.2,0,.16.19s-.06.29-.1.43,0,.17,0,.25-.05.09-.11.1a1.18,1.18,0,0,1-.25,0l-.62,0a3.39,3.39,0,0,1-.64,0,1.06,1.06,0,0,1-.31-.05.62.62,0,0,1-.39-.4,1,1,0,0,1,0-.52c0-.16.05-.31.09-.47a2.74,2.74,0,0,1,.09-.39.43.43,0,0,0,0-.11.27.27,0,0,1,0-.13,3.4,3.4,0,0,0,.07-.34c0-.05,0-.08-.07-.08h-.48c-.1,0-.12,0-.12-.11a.53.53,0,0,1,0-.13c.08-.24.1-.49.17-.73,0-.07,0-.09.12-.09h.54c.06,0,.08,0,.09-.08a3.82,3.82,0,0,0,.09-.44,3.15,3.15,0,0,0,.09-.42c0-.12.05-.16.17-.16h1.4a.07.07,0,0,1,.06.07.09.09,0,0,1,0,.07c-.07.21-.09.44-.15.66a1.57,1.57,0,0,1,0,.23s0,0,0,.06h.68c.06,0,.08,0,.07.1s-.07.37-.11.56a.58.58,0,0,0,0,.14.36.36,0,0,1,0,.1c0,.16-.06.16-.22.16Z"/></g></g></svg>